<?xml version="1.0" encoding="utf-8"?>
<!-- Generator: Adobe Illustrator 21.0.0, SVG Export Plug-In . SVG Version: 6.00 Build 0)  -->
<svg version="1.1" id="Calque_1" xmlns="http://www.w3.org/2000/svg" xmlns:xlink="http://www.w3.org/1999/xlink" x="0px" y="0px"
	 viewBox="0 0 90 90" enable-background="new 0 0 90 90" xml:space="preserve">
<path id="community_1_3_" fill="#FFFFFF" d="M88.882,48.797c0-10.418-11.703-18.894-26.088-18.894c-0.836,0-1.684,0.029-2.523,0.086
	c-0.043-0.141-0.087-0.278-0.132-0.409l-0.043-0.128c-0.105-0.308-0.22-0.613-0.337-0.901l-0.053-0.128
	c-0.123-0.296-0.255-0.589-0.388-0.866l-0.061-0.126c-0.142-0.29-0.292-0.577-0.441-0.842l-0.073-0.129
	c-0.16-0.281-0.327-0.56-0.502-0.834l-0.065-0.099c-0.178-0.275-0.363-0.547-0.543-0.797l-0.072-0.097
	c-0.2-0.275-0.406-0.545-0.656-0.854c-1.573-1.938-3.55-3.677-5.89-5.178l-0.091-0.06c-0.256-0.163-0.518-0.32-0.794-0.483
	l-0.261-0.155c-0.237-0.138-0.48-0.27-0.732-0.408l-0.363-0.196c-0.21-0.111-0.424-0.217-0.697-0.353l-0.432-0.213
	c-0.223-0.106-0.45-0.209-0.683-0.313l-0.495-0.22c-0.217-0.093-0.437-0.184-0.661-0.273l-0.54-0.215
	c-0.216-0.083-0.433-0.163-0.646-0.241c-0.191-0.069-0.383-0.137-0.586-0.208c-0.214-0.073-0.429-0.144-0.648-0.215
	c-0.202-0.065-0.405-0.128-0.618-0.193c-0.214-0.065-0.43-0.128-0.646-0.19c-0.213-0.06-0.428-0.119-0.65-0.177
	c-0.214-0.056-0.429-0.112-0.639-0.163c-0.227-0.056-0.455-0.108-0.689-0.161c-0.213-0.048-0.426-0.097-0.632-0.139
	c-0.236-0.049-0.475-0.095-0.711-0.139c-0.212-0.04-0.423-0.081-0.629-0.117c-0.223-0.039-0.448-0.074-0.673-0.108l-0.715-0.108
	c-0.196-0.026-0.393-0.05-0.59-0.074l-0.801-0.093c-0.245-0.025-0.492-0.045-0.739-0.065l-0.674-0.056
	c-0.319-0.022-0.64-0.036-0.954-0.05l-0.485-0.024c-0.481-0.016-0.964-0.025-1.45-0.025c-16.483,0-29.892,9.655-29.892,21.522
	c0,8.828,7.176,16.554,18.367,19.882c0,0.773-0.2,2.51-1.45,5.842l-1.807,4.819l5.025-1.116c6.434-1.43,10.928-6.066,12.758-8.014
	c0.242-0.018,0.484-0.038,0.726-0.059L35.228,56c0.559-0.055,1.115-0.12,1.641-0.194l0.112-0.014
	c0.481-0.069,0.957-0.146,1.429-0.231c0.623,1.191,1.414,2.336,2.371,3.428c1.086,1.235,2.374,2.377,3.852,3.413l0.078,0.054
	c0.462,0.32,0.941,0.629,1.42,0.915l0.112,0.065c0.986,0.582,2.038,1.116,3.148,1.595l0.146,0.063
	c0.521,0.221,1.054,0.428,1.595,0.623l0.256,0.09c0.545,0.19,1.099,0.37,1.691,0.54l0.133,0.036c0.553,0.157,1.116,0.3,1.703,0.434
	l0.153,0.037c0.575,0.128,1.161,0.238,1.772,0.341l0.313,0.051c0.583,0.092,1.172,0.17,1.792,0.237l0.285,0.026
	c0.267,0.026,0.534,0.05,0.803,0.072c1.658,1.757,5.536,5.663,11.064,6.892l5.025,1.117l-1.808-4.821
	c-0.924-2.464-1.163-3.877-1.211-4.597C82.728,63.217,88.882,56.486,88.882,48.797z M57.131,29.497L57.131,29.497L57.131,29.497
	L57.131,29.497z M56.318,27.84L56.318,27.84L56.318,27.84L56.318,27.84z M46.3,60.164L46.3,60.164L46.3,60.164L46.3,60.164z
	 M47.661,61.036L47.661,61.036L47.661,61.036L47.661,61.036z"/>
</svg>
