<?xml version="1.0" encoding="utf-8"?>
<!-- Generator: Adobe Illustrator 21.0.0, SVG Export Plug-In . SVG Version: 6.00 Build 0)  -->
<svg version="1.1" id="Calque_1" xmlns="http://www.w3.org/2000/svg" xmlns:xlink="http://www.w3.org/1999/xlink" x="0px" y="0px"
	 viewBox="0 0 90 90" enable-background="new 0 0 90 90" xml:space="preserve">
<title>icon_like</title>
<g id="Calque_2">
	<g id="PICTOS">
		<g id="LIKE">
			<path fill="#FFFFFF" d="M63.64,15.826c9.648,0,17.471,8.922,17.471,19.939c0,14.631-23.785,31.822-36.116,39.273
				C32.684,67.634,8.861,50.442,8.861,35.765c0-11.017,7.851-19.939,17.499-19.939c1.602,0,6.081,2.012,12.759,9.583l5.876,6.668
				l5.876-6.668C57.549,17.838,62.047,15.826,63.64,15.826 M63.64,7.984c-6.743,0-14.193,7.199-18.645,12.237
				C40.544,15.183,33.093,7.984,26.36,7.984c-13.616,0-25.341,12.107-25.341,27.781c0,24.707,43.976,48.251,43.976,48.251
				s43.985-23.543,43.985-48.251C88.981,20.091,77.255,7.984,63.64,7.984z"/>
		</g>
	</g>
</g>
</svg>
