<?xml version="1.0" encoding="utf-8"?>
<!-- Generator: Adobe Illustrator 21.0.0, SVG Export Plug-In . SVG Version: 6.00 Build 0)  -->
<svg version="1.1" id="Calque_1" xmlns="http://www.w3.org/2000/svg" xmlns:xlink="http://www.w3.org/1999/xlink" x="0px" y="0px"
	 viewBox="0 0 90 90" enable-background="new 0 0 90 90" xml:space="preserve">
<g>
	
		<linearGradient id="SVGID_1_" gradientUnits="userSpaceOnUse" x1="0.697" y1="46.057" x2="45.507" y2="46.057" gradientTransform="matrix(1 0 0 -1 0 92)">
		<stop  offset="0" style="stop-color:#E6007D"/>
		<stop  offset="1" style="stop-color:#E5005A"/>
	</linearGradient>
	<path fill="url(#SVGID_1_)" d="M29.1,50.348l16.407-12.493l-6.958-22.923c-3.814-3.235-8.195-5.908-12.31-5.908
		c-13.728,0-25.542,12.158-25.542,28.001c0,19.805,28.023,38.86,39.507,45.837L29.1,50.348z"/>
	
		<linearGradient id="SVGID_2_" gradientUnits="userSpaceOnUse" x1="40.17" y1="46.1265" x2="89.352" y2="46.1265" gradientTransform="matrix(1 0 0 -1 0 92)">
		<stop  offset="0" style="stop-color:#E5005A"/>
		<stop  offset="0.9922" style="stop-color:#E4003B"/>
	</linearGradient>
	<path fill="url(#SVGID_2_)" d="M63.81,9.024c-5.035,0-10.471,3.996-14.775,8.136l7.35,24.211L40.17,53.718l9.904,29.005
		c11.621-7.088,39.278-26.022,39.278-45.698C89.352,21.182,77.538,9.024,63.81,9.024z"/>
</g>
</svg>
