<svg xmlns="http://www.w3.org/2000/svg" viewBox="0 0 92.89 94.12"><defs><style>.cls-1{fill:#fff;}</style></defs><title>icon_share</title><g id="Calque_2" data-name="Calque 2"><g id="PICTOS"><path class="cls-1" d="M85.78,52.69h0a24.25,24.25,0,0,0-33.63-.61L34.69,44.22A17.75,17.75,0,0,0,34.31,35L60.85,18.07l.2.22a10.74,10.74,0,1,0-2.47-3.88L30.94,28.89c-.3-.35-.61-.7-.94-1a17.56,17.56,0,0,0-24.85,0h0a17.56,17.56,0,0,0,0,24.85h0A17.57,17.57,0,0,0,28.6,54L44.78,65.38a24.26,24.26,0,1,0,41-12.69Z"/></g></g></svg>