<svg xmlns="http://www.w3.org/2000/svg" viewBox="0 0 138.97 66"><defs><style>.cls-1{fill:#fff;}</style></defs><title>icon_mix</title><g id="Calque_2" data-name="Calque 2"><g id="PICTOS"><path class="cls-1" d="M106,66a32.75,32.75,0,0,1-23.33-9.67L82.36,56,69.48,40.75,56.32,56.33A33,33,0,0,1,9.65,9.67a33,33,0,0,1,46.67,0l.29.31L69.48,25.25,82.65,9.67a33,33,0,0,1,46.67,46.66A32.76,32.76,0,0,1,106,66ZM89.86,49.41a23,23,0,1,0,0-32.82L76,33ZM33,10A23,23,0,1,0,49.1,49.41L62.94,33,49.1,16.59A22.84,22.84,0,0,0,33,10Z"/></g></g></svg>