<?xml version="1.0" encoding="utf-8"?>
<!-- Generator: Adobe Illustrator 21.0.0, SVG Export Plug-In . SVG Version: 6.00 Build 0)  -->
<svg version="1.1" id="Calque_1" xmlns="http://www.w3.org/2000/svg" xmlns:xlink="http://www.w3.org/1999/xlink" x="0px" y="0px"
	 viewBox="0 0 90 90" enable-background="new 0 0 90 90" xml:space="preserve">
<linearGradient id="community_1_1_" gradientUnits="userSpaceOnUse" x1="1.4337" y1="44.5392" x2="88.8451" y2="44.5392">
	<stop  offset="0" style="stop-color:#0051A0"/>
	<stop  offset="1" style="stop-color:#792283"/>
</linearGradient>
<path id="community_1_2_" fill="url(#community_1_1_)" d="M88.845,48.944c0-10.386-11.667-18.835-26.007-18.835
	c-0.833,0-1.679,0.029-2.515,0.086c-0.043-0.14-0.087-0.277-0.131-0.408l-0.043-0.128c-0.105-0.307-0.219-0.611-0.336-0.898
	l-0.053-0.128c-0.123-0.295-0.254-0.587-0.387-0.863l-0.061-0.126c-0.142-0.289-0.291-0.575-0.44-0.84l-0.073-0.129
	c-0.159-0.28-0.326-0.558-0.501-0.832l-0.064-0.099c-0.177-0.274-0.362-0.546-0.541-0.795l-0.071-0.097
	c-0.199-0.274-0.405-0.543-0.654-0.851c-1.568-1.932-3.539-3.666-5.872-5.162l-0.091-0.06c-0.255-0.162-0.517-0.319-0.791-0.482
	l-0.26-0.154c-0.236-0.137-0.478-0.269-0.73-0.407l-0.362-0.196c-0.21-0.11-0.423-0.217-0.695-0.352l-0.431-0.212
	c-0.222-0.106-0.449-0.208-0.681-0.312l-0.494-0.219c-0.217-0.092-0.436-0.183-0.659-0.272l-0.538-0.214
	c-0.215-0.082-0.432-0.163-0.644-0.24c-0.191-0.069-0.382-0.137-0.584-0.207c-0.213-0.073-0.428-0.144-0.646-0.214
	c-0.201-0.064-0.404-0.127-0.616-0.192c-0.214-0.064-0.429-0.128-0.644-0.189c-0.213-0.06-0.427-0.119-0.648-0.177
	c-0.213-0.056-0.427-0.112-0.638-0.163c-0.226-0.056-0.454-0.108-0.687-0.161c-0.212-0.048-0.424-0.096-0.63-0.139
	c-0.236-0.049-0.473-0.095-0.709-0.139c-0.211-0.04-0.422-0.081-0.627-0.116c-0.222-0.039-0.446-0.074-0.671-0.108l-0.713-0.108
	c-0.195-0.026-0.392-0.05-0.589-0.074l-0.799-0.093c-0.244-0.025-0.49-0.045-0.736-0.065l-0.672-0.056
	c-0.318-0.022-0.638-0.036-0.951-0.05l-0.483-0.024c-0.479-0.016-0.961-0.025-1.446-0.025c-16.432,0-29.799,9.625-29.799,21.456
	c0,8.8,7.154,16.503,18.31,19.82c0,0.771-0.2,2.502-1.446,5.824l-1.802,4.804l5.009-1.113c6.414-1.426,10.894-6.047,12.719-7.989
	c0.242-0.018,0.483-0.038,0.723-0.059l0.409-0.04c0.558-0.055,1.111-0.12,1.636-0.193l0.112-0.014
	c0.479-0.069,0.954-0.146,1.424-0.23c0.621,1.187,1.409,2.329,2.364,3.418c1.083,1.231,2.366,2.37,3.84,3.403l0.078,0.054
	c0.461,0.319,0.938,0.627,1.416,0.913l0.111,0.065c0.983,0.58,2.032,1.112,3.138,1.59l0.145,0.063
	c0.519,0.22,1.051,0.427,1.59,0.621l0.255,0.09c0.543,0.189,1.096,0.369,1.686,0.539l0.133,0.036c0.551,0.157,1.113,0.3,1.698,0.432
	l0.152,0.036c0.573,0.127,1.157,0.237,1.767,0.34l0.312,0.051c0.581,0.092,1.169,0.17,1.786,0.237l0.284,0.026
	c0.266,0.026,0.532,0.05,0.8,0.071c1.653,1.751,5.518,5.646,11.03,6.871l5.01,1.114l-1.802-4.806
	c-0.922-2.456-1.16-3.865-1.207-4.582C82.71,63.319,88.845,56.61,88.845,48.944z M57.193,29.704L57.193,29.704L57.193,29.704
	L57.193,29.704z M56.381,28.053L56.381,28.053L56.381,28.053L56.381,28.053z M46.395,60.276L46.395,60.276L46.395,60.276
	L46.395,60.276z M47.752,61.145L47.752,61.145L47.752,61.145L47.752,61.145z"/>
</svg>
