<svg xmlns="http://www.w3.org/2000/svg" viewBox="0 0 110 78.32"><defs><style>.cls-1{fill:#fff;}</style></defs><title>icon_comment_hover</title><g id="Calque_2" data-name="Calque 2"><g id="PICTOS"><path id="Comment_1" data-name="Comment 1" class="cls-1" d="M110,44.7C110,31.63,95.32,21,77.27,21c-1,0-2.11,0-3.16.11-.06-.18-.11-.35-.17-.52l0-.16c-.13-.38-.28-.76-.43-1.13l-.06-.16c-.16-.37-.32-.74-.49-1.08l-.08-.16c-.18-.36-.36-.73-.55-1.06l-.09-.16q-.3-.53-.63-1l-.08-.12c-.23-.35-.46-.69-.68-1l-.09-.12c-.25-.35-.51-.69-.83-1.07a30.6,30.6,0,0,0-7.39-6.5l-.11-.08-1-.6-.32-.2-.92-.51-.46-.24-.87-.45-.54-.26-.86-.4-.62-.27L56,3.47l-.68-.27-.81-.31-.73-.26-.82-.27-.77-.24-.81-.24-.82-.22-.8-.2-.86-.21-.8-.17L47.17.9,46.38.76,45.54.62l-.9-.13L43.9.39l-1-.11L42,.19,41.12.12,39.93.06l-.61,0c-.6,0-1.21,0-1.82,0C16.82,0,0,12.11,0,27,0,38.07,9,47.77,23,51.94c0,1-.25,3.15-1.82,7.33l-2.26,6,6.3-1.4c8.07-1.8,13.71-7.61,16-10.06l.91-.07.52,0c.7-.07,1.4-.15,2.06-.24l.14,0,1.79-.29a22.13,22.13,0,0,0,3,4.3,26.84,26.84,0,0,0,4.83,4.28l.1.07c.58.4,1.18.79,1.78,1.15l.14.08a35.59,35.59,0,0,0,4,2l.18.08c.65.28,1.32.54,2,.78L63,66c.69.24,1.38.47,2.12.68l.17,0c.7.19,1.4.37,2.14.54l.19,0c.72.16,1.46.3,2.22.43l.39.06c.74.11,1.48.21,2.25.3l.36,0,1,.09c2.08,2.2,6.94,7.11,13.88,8.65l6.3,1.4-2.27-6a21.18,21.18,0,0,1-1.51-5.77C102.28,62.79,110,54.35,110,44.7ZM69.15,18.41ZM56.58,59Zm1.71,1.1Z"/></g></g></svg>