<?xml version="1.0" encoding="utf-8"?>
<!-- Generator: Adobe Illustrator 21.0.0, SVG Export Plug-In . SVG Version: 6.00 Build 0)  -->
<svg version="1.1" id="Calque_1" xmlns="http://www.w3.org/2000/svg" xmlns:xlink="http://www.w3.org/1999/xlink" x="0px" y="0px"
	 viewBox="0 0 90 90" enable-background="new 0 0 90 90" xml:space="preserve">
<g id="Boucle">
	<polygon fill="#FFFFFF" points="55.582,30.244 37.08,19.561 37.08,40.926 	"/>
	<path fill="#FFFFFF" d="M67.917,71.046l-45.779-0.325C10.15,70.715,0.4,60.961,0.4,48.973c0-11.992,9.756-21.748,21.748-21.748
		l45.792,0.325c11.969,0,21.725,9.756,21.725,21.748S79.908,71.046,67.917,71.046z M22.125,33.716
		c-8.39,0-15.233,6.844-15.233,15.256s6.844,15.256,15.256,15.256h0.023l45.769,0.325c8.39,0,15.233-6.844,15.233-15.256
		s-6.844-15.256-15.256-15.256L22.125,33.716z"/>
</g>
</svg>
