<svg xmlns="http://www.w3.org/2000/svg" viewBox="0 0 91.99 91.99"><defs><style>.cls-1{fill:#fff;}</style></defs><title>icon_facebook</title><g id="Calque_2" data-name="Calque 2"><g id="PICTOS"><g id="Facebook"><path class="cls-1" d="M0,78.18V13.81c.09-.32.18-.65.26-1A15.91,15.91,0,0,1,11.69.53c.7-.21,1.42-.35,2.12-.53H78.18a5,5,0,0,0,.55.17A15.91,15.91,0,0,1,91.53,12c.18.61.31,1.23.46,1.84V78.18c-.06.23-.14.46-.19.69A16,16,0,0,1,80.08,91.51c-.62.19-1.27.32-1.9.48H60.4a7.2,7.2,0,0,1-.07-.8V57.25h.94c4.51,0,9,0,13.52,0,.65,0,.88-.14.87-.84,0-4.55,0-9.11,0-13.66,0-.26,0-.53,0-.88H60.39c0-2.37-.1-4.65,0-6.92s1.5-3.27,3.64-3.27H74.65c.31,0,.62,0,.94-.05V16.34h-12a15.31,15.31,0,0,0-9.08,2.87A19.38,19.38,0,0,0,46.32,32.6,71.51,71.51,0,0,0,46,41c0,.28,0,.56,0,.91H34.79c0,.24,0,.41,0,.58,0,4.68,0,9.35,0,14,0,.63.27.71.79.71,3.18,0,6.37,0,9.55,0H46V92H13.81c-.2-.06-.41-.13-.62-.18A15.94,15.94,0,0,1,.48,80.08C.29,79.46.16,78.81,0,78.18Z"/></g></g></g></svg>