<?xml version="1.0" encoding="utf-8"?>
<!-- Generator: Adobe Illustrator 21.0.0, SVG Export Plug-In . SVG Version: 6.00 Build 0)  -->
<svg version="1.1" id="Calque_1" xmlns="http://www.w3.org/2000/svg" xmlns:xlink="http://www.w3.org/1999/xlink" x="0px" y="0px"
	 viewBox="0 0 90 90" enable-background="new 0 0 90 90" xml:space="preserve">
<g id="Pause_2_">
	<path fill="#FFFFFF" d="M19.596,73.101V17.875c0-0.857,0.695-1.552,1.552-1.552h13.928c0.857,0,1.552,0.695,1.552,1.552v55.226
		c0,0.857-0.695,1.552-1.552,1.552H21.149C20.291,74.653,19.596,73.958,19.596,73.101z"/>
	<path fill="#FFFFFF" d="M53.894,73.101V17.875c0-0.857,0.695-1.552,1.552-1.552h13.928c0.857,0,1.552,0.695,1.552,1.552v55.226
		c0,0.857-0.695,1.552-1.552,1.552H55.447C54.589,74.654,53.894,73.959,53.894,73.101z"/>
</g>
</svg>
