<svg xmlns="http://www.w3.org/2000/svg" viewBox="0 0 91.99 91.99"><defs><style>.cls-1{fill:#fff;}</style></defs><title>icon_twitter</title><g id="Calque_2" data-name="Calque 2"><g id="PICTOS"><g id="Twitter"><path class="cls-1" d="M75.56,0H16.43A16.42,16.42,0,0,0,0,16.43V75.56A16.42,16.42,0,0,0,16.43,92H75.56A16.42,16.42,0,0,0,92,75.56V16.43A16.42,16.42,0,0,0,75.56,0Zm-2,32.3a3.66,3.66,0,0,0-1.38,3.08c-.51,14.45-6.46,26.09-19,33.48-13.28,7.83-26.92,7.07-40.33-.42A29.08,29.08,0,0,0,32.41,62.5C26.15,61.84,22,58.84,19.65,53h5.64c-6.46-2.43-10-6.86-10.5-13.65l5.73,1.6c.07-.12.14-.24.2-.36a13.88,13.88,0,0,1-5.4-8.23,13.7,13.7,0,0,1,1.46-9.82c7.42,8.64,16.7,13.48,28,14.28a43.55,43.55,0,0,1,.44-6.24,13.58,13.58,0,0,1,22-7.44,2.89,2.89,0,0,0,3.39.66c1.08-.45,2.23-.72,3.32-1.16s2-.92,3.06-1.41c-.55,2.24-1,2.86-5,7.36l6.66-1.81.28.24C77.09,28.78,75.44,30.69,73.54,32.3Z"/></g></g></g></svg>