<svg xmlns="http://www.w3.org/2000/svg" viewBox="0 0 94.45 81.64"><defs><style>.cls-1{fill:#fff;}</style></defs><title>icon_like</title><g id="Calque_2" data-name="Calque 2"><g id="PICTOS"><g id="LIKE"><path class="cls-1" d="M67.24,8.42C77.6,8.42,86,18,86,29.83,86,45.54,60.46,64,47.22,72,34,64.05,8.42,45.59,8.42,29.83,8.42,18,16.85,8.42,27.21,8.42c1.72,0,6.53,2.16,13.7,10.29l6.31,7.16,6.31-7.16c7.17-8.13,12-10.29,13.71-10.29m0-8.42C60,0,52,7.73,47.22,13.14,42.44,7.73,34.44,0,27.21,0,12.59,0,0,13,0,29.83,0,56.36,47.22,81.64,47.22,81.64S94.45,56.36,94.45,29.83C94.45,13,81.86,0,67.24,0Z"/></g></g></g></svg>