<?xml version="1.0" encoding="utf-8"?>
<!-- Generator: Adobe Illustrator 21.0.0, SVG Export Plug-In . SVG Version: 6.00 Build 0)  -->
<svg version="1.1" id="Calque_1" xmlns="http://www.w3.org/2000/svg" xmlns:xlink="http://www.w3.org/1999/xlink" x="0px" y="0px"
	 viewBox="0 0 90 90" enable-background="new 0 0 90 90" xml:space="preserve">
<linearGradient id="SVGID_1_" gradientUnits="userSpaceOnUse" x1="0.4" y1="45.3035" x2="89.665" y2="45.3035">
	<stop  offset="0" style="stop-color:#EE7402"/>
	<stop  offset="1" style="stop-color:#FBBB00"/>
</linearGradient>
<path fill="url(#SVGID_1_)" d="M67.94,27.55l-17.236-0.122L37.08,19.561v7.77l-14.932-0.106C10.156,27.225,0.4,36.981,0.4,48.973
	c0,11.988,9.75,21.742,21.738,21.748l45.779,0.325c11.991,0,21.748-9.756,21.748-21.748S79.909,27.55,67.94,27.55z M67.94,64.553
	l-45.769-0.325h-0.023c-8.412,0-15.256-6.844-15.256-15.256s6.843-15.256,15.233-15.256l14.955,0.106v7.104l12.155-7.018
	l18.682,0.133c8.412,0,15.256,6.844,15.256,15.256S76.33,64.553,67.94,64.553z"/>
</svg>
