<svg xmlns="http://www.w3.org/2000/svg" viewBox="0 0 67.61 67.61"><defs><style>.cls-1{fill:#fff;}</style></defs><title>icon_delete</title><g id="Calque_2" data-name="Calque 2"><g id="PICTOS"><path class="cls-1" d="M50.66,33.89,65.22,19.33a8.18,8.18,0,0,0,0-11.56L60,2.56a8.17,8.17,0,0,0-11.57,0L33.89,17.11,19.17,2.39a8.18,8.18,0,0,0-11.56,0L2.39,7.61a8.18,8.18,0,0,0,0,11.56L17.11,33.89,2.56,48.44A8.17,8.17,0,0,0,2.56,60l5.21,5.21a8.18,8.18,0,0,0,11.56,0L33.89,50.66l14.39,14.4a8.18,8.18,0,0,0,11.56,0l5.22-5.22a8.18,8.18,0,0,0,0-11.56Z"/></g></g></svg>