<svg xmlns="http://www.w3.org/2000/svg" viewBox="0 0 90 85.62"><defs><style>.cls-1{fill:#fff;}</style></defs><title>icon_download</title><g id="Calque_2" data-name="Calque 2"><g id="PICTOS"><path class="cls-1" d="M2.5,40.61,45.13,75.3,87.75,40.61a5.68,5.68,0,0,0,.41-8.71,7.61,7.61,0,0,0-9.84-.37L55.19,50.37l6-45.64C61.51,2.21,59.29,0,56.42,0H34.28c-2.86,0-5.08,2.21-4.75,4.73l6,46.05L11.93,31.53a7.61,7.61,0,0,0-9.84.37A5.68,5.68,0,0,0,2.5,40.61Z"/><path class="cls-1" d="M84.77,75.45H5.09a5.09,5.09,0,1,0,0,10.17H84.77a5.09,5.09,0,1,0,0-10.17Z"/></g></g></svg>