<?xml version="1.0" encoding="utf-8"?>
<!-- Generator: Adobe Illustrator 21.0.0, SVG Export Plug-In . SVG Version: 6.00 Build 0)  -->
<svg version="1.1" id="Calque_1" xmlns="http://www.w3.org/2000/svg" xmlns:xlink="http://www.w3.org/1999/xlink" x="0px" y="0px"
	 viewBox="0 0 90 90" enable-background="new 0 0 90 90" xml:space="preserve">
<linearGradient id="SVGID_1_" gradientUnits="userSpaceOnUse" x1="0.2953" y1="45.5525" x2="89.6018" y2="45.5525">
	<stop  offset="0" style="stop-color:#E4003B"/>
	<stop  offset="1" style="stop-color:#EE7402"/>
</linearGradient>
<path fill="url(#SVGID_1_)" d="M68.405,66.759c-5.665,0-10.99-2.206-14.995-6.211l-0.185-0.2l-8.277-9.812l-8.461,10.012
	c-4.005,4.006-9.331,6.211-14.995,6.211s-10.99-2.206-14.995-6.211c-8.269-8.269-8.269-21.723,0-29.991
	c4.005-4.006,9.331-6.211,14.995-6.211s10.99,2.206,14.995,6.211l0.185,0.2l8.277,9.812l8.461-10.012
	c4.005-4.006,9.331-6.211,14.995-6.211s10.99,2.206,14.995,6.211c8.269,8.269,8.269,21.723,0,29.991
	C79.395,64.553,74.069,66.759,68.405,66.759z M58.045,56.095c2.781,2.734,6.455,4.238,10.359,4.238c3.948,0,7.66-1.538,10.452-4.329
	c2.791-2.791,4.329-6.503,4.329-10.451s-1.538-7.66-4.329-10.451c-2.792-2.792-6.504-4.329-10.452-4.329
	c-3.905,0-7.579,1.504-10.359,4.238l-8.893,10.543L58.045,56.095z M21.492,30.771c-3.948,0-7.66,1.538-10.452,4.329
	c-2.791,2.791-4.329,6.503-4.329,10.451s1.538,7.66,4.329,10.451c2.792,2.792,6.504,4.329,10.452,4.329
	c3.905,0,7.579-1.504,10.359-4.238l8.893-10.543l-8.893-10.543C29.071,32.275,25.397,30.771,21.492,30.771z"/>
</svg>
