<?xml version="1.0" encoding="utf-8"?>
<!-- Generator: Adobe Illustrator 21.0.0, SVG Export Plug-In . SVG Version: 6.00 Build 0)  -->
<svg version="1.1" id="Calque_1" xmlns="http://www.w3.org/2000/svg" xmlns:xlink="http://www.w3.org/1999/xlink" x="0px" y="0px"
	 viewBox="0 0 90 90" enable-background="new 0 0 90 90" xml:space="preserve">
<linearGradient id="SVGID_1_" gradientUnits="userSpaceOnUse" x1="0.3305" y1="44.9328" x2="89.3476" y2="44.9328">
	<stop  offset="0" style="stop-color:#53AF32"/>
	<stop  offset="1" style="stop-color:#006A06"/>
</linearGradient>
<path fill="url(#SVGID_1_)" d="M85.871,5.506c-3.008-3.067-7.306-4.909-11.5-4.929c-3.513-0.108-6.71,1.233-9.105,3.623
	L6.646,62.819c-0.235,0.239-0.401,0.537-0.483,0.861L0.355,86.999c-0.012,0.046,0.009,0.092,0.001,0.138
	c-0.037,0.213-0.033,0.422,0.006,0.635c0.014,0.073,0.012,0.143,0.033,0.213c0.079,0.258,0.201,0.506,0.397,0.718
	c0.008,0.008,0.018,0.01,0.026,0.018c0.005,0.005,0.005,0.013,0.01,0.018c0.114,0.115,0.256,0.185,0.391,0.266
	c0.073,0.043,0.134,0.111,0.211,0.143c0.225,0.095,0.467,0.146,0.714,0.146c0.135,0,0.275-0.018,0.415-0.05l23.689-5.439
	c0.334-0.077,0.64-0.248,0.888-0.487c0,0,55.171-54.801,58.621-58.256C90.056,20.775,90.967,10.708,85.871,5.506z M78.916,26.66
	L63.515,11.178l1.906-1.906l15.403,15.49C80.269,25.314,79.629,25.952,78.916,26.66z M74.384,31.165L59,15.694l1.904-1.904
	l15.393,15.474C75.689,29.868,75.051,30.502,74.384,31.165z M28.473,73.14l35.675-35.679c0.722-0.722,0.722-1.894,0-2.616
	c-0.722-0.722-1.894-0.722-2.616,0L26.328,70.055l-7.565,0.764l0.625-6.569l35.776-35.776c0.722-0.722,0.722-1.894,0-2.616
	c-0.722-0.722-1.894-0.722-2.616,0l-35.56,35.56l-4.142,0.426l43.541-43.539l15.377,15.464
	c-13.596,13.513-35.36,35.133-43.757,43.474L28.473,73.14z M9.413,65.908l6.166-0.631l-0.708,7.432
	c-0.05,0.55,0.144,1.096,0.537,1.484c0.392,0.392,0.938,0.564,1.488,0.532l7.77-0.785l-0.752,6.613L8.467,84.098l0.1-0.093
	c0.744-0.694,0.789-1.862,0.095-2.611c-0.704-0.749-1.867-0.785-2.611-0.095l-0.612,0.568L9.413,65.908z M83.401,22.116
	L68.052,6.681c2.088-1.972,4.596-2.309,6.301-2.411c3.229,0.016,6.548,1.445,8.875,3.82C86.938,11.874,85.962,19.145,83.401,22.116z
	"/>
</svg>
