<svg xmlns="http://www.w3.org/2000/svg" viewBox="0 0 115 108"><defs><style>.cls-1{fill:#fff;}</style></defs><title>icon_social</title><g id="Calque_2" data-name="Calque 2"><g id="PICTOS"><g id="Community"><path class="cls-1" d="M109.53,75.36a15.06,15.06,0,0,1-14.47,11,15.3,15.3,0,0,1-4-.55L78.55,82.32a15,15,0,0,1-11-14.38,15.13,15.13,0,0,1-3.58.45H51a14.8,14.8,0,0,1-3.6-.46,15,15,0,0,1-11,14.39L24,85.8a15.3,15.3,0,0,1-4,.55,15.06,15.06,0,0,1-14.47-11l-3.07-11A21.39,21.39,0,0,0,0,74c0,18.78,25.74,34,57.5,34S115,92.78,115,74a21.39,21.39,0,0,0-2.39-9.7Z"/><circle class="cls-1" cx="98.89" cy="31.16" r="13.53"/><path class="cls-1" d="M93.11,51.9a21.42,21.42,0,0,1-11.77-8.29,7.9,7.9,0,0,0-2.18,3.63L74.85,62.7a8,8,0,0,0,5.58,9.88l12.48,3.47a8,8,0,0,0,9.88-5.57L107.09,55a8,8,0,0,0,.08-4A21.41,21.41,0,0,1,93.11,51.9Z"/><circle class="cls-1" cx="57.69" cy="13.53" r="13.53"/><path class="cls-1" d="M57.69,35.07a21.38,21.38,0,0,1-13.56-4.84A8,8,0,0,0,43,34.32v16a8,8,0,0,0,8,8H64a8,8,0,0,0,8-8v-16a8.09,8.09,0,0,0-1-3.89A21.4,21.4,0,0,1,57.69,35.07Z"/><path class="cls-1" d="M21.87,51.9a21.42,21.42,0,0,0,11.77-8.29,7.9,7.9,0,0,1,2.18,3.63L40.13,62.7a8,8,0,0,1-5.58,9.88L22.07,76.05a8,8,0,0,1-9.88-5.57L7.89,55a8,8,0,0,1-.08-4A21.41,21.41,0,0,0,21.87,51.9Z"/><circle class="cls-1" cx="16.09" cy="31.16" r="13.53"/></g></g></g></svg>