<svg xmlns="http://www.w3.org/2000/svg" viewBox="0 0 123.12 123.12"><defs><style>.cls-1{fill:#fff;}</style></defs><title>icon_nowplaying</title><g id="Calque_2" data-name="Calque 2"><g id="PICTOS"><path class="cls-1" d="M98.94,55.92,47.41,26.17a6.45,6.45,0,0,0-9.68,5.59v59.5a6.45,6.45,0,0,0,9.68,5.59L98.94,67.1A6.46,6.46,0,0,0,98.94,55.92Z"/><path class="cls-1" d="M61.56,0a61.56,61.56,0,1,0,61.56,61.56A61.64,61.64,0,0,0,61.56,0Zm0,114A52.44,52.44,0,1,1,114,61.56,52.49,52.49,0,0,1,61.56,114Z"/></g></g></svg>