<svg xmlns="http://www.w3.org/2000/svg" viewBox="0 0 110 78.32"><defs><style>.cls-1{fill:#fff;}</style></defs><title>icon_comment</title><g id="Calque_2" data-name="Calque 2"><g id="PICTOS"><path id="Comment_2" data-name="Comment 2" class="cls-1" d="M110,44.7C110,31.63,95.32,21,77.27,21c-1,0-2.11,0-3.16.11C70.68,9.79,57.6,1.36,41.49.15l-.26,0L39.73.05l-.39,0c-.61,0-1.22,0-1.84,0C16.82,0,0,12.11,0,27,0,38.07,9,47.77,23,51.94c0,1-.25,3.15-1.82,7.33l-2.26,6,6.3-1.4c8.07-1.8,13.7-7.61,16-10.05.83-.06,1.64-.15,2.45-.24l.52-.07c.79-.1,1.58-.22,2.35-.36h.1C51,61.5,61.38,67.35,73.81,68.27c2.09,2.21,7,7.11,13.88,8.65l6.3,1.4-2.27-6a21.18,21.18,0,0,1-1.51-5.77C102.28,62.79,110,54.35,110,44.7ZM36.36,48.87a34.35,34.35,0,0,1-6.52,5.6,10.3,10.3,0,0,0-.59-6.29,5.68,5.68,0,0,0-.6-.93A5.08,5.08,0,0,0,26,45.51C14.65,42.44,7,35,7,27,7,16,20.68,7,37.5,7L39,7l1.12.06h.32C54.86,8,66.66,15.71,67.89,25.36v.12A12.79,12.79,0,0,1,68,27c0,8.31-7.87,15.54-19.08,18.53l-1,.24a43,43,0,0,1-6,1l-.36,0c-.65.06-1.3.1-1.95.13C38.08,47,37.28,47.88,36.36,48.87ZM87,60.14a4.89,4.89,0,0,0-3.07,2.55,8.26,8.26,0,0,0-.69,4.62,30,30,0,0,1-4.63-4.15,4.33,4.33,0,0,0-3.11-1.8c-9.62-.43-18-4.4-21.77-10C65.92,47.11,74.4,38.28,75,28.08c.77,0,1.54-.08,2.31-.08,14,0,25.73,7.65,25.73,16.7C103,51.35,96.57,57.56,87,60.14Z"/></g></g></svg>