<svg xmlns="http://www.w3.org/2000/svg" viewBox="0 0 81.25 81.25"><defs><style>.cls-1{fill:#fff;}</style></defs><title>icon_add</title><g id="Calque_2" data-name="Calque 2"><g id="PICTOS"><path class="cls-1" d="M73.07,28.76H52.71V8.18A8.17,8.17,0,0,0,44.54,0H37.16A8.17,8.17,0,0,0,29,8.18V28.76H8.18A8.18,8.18,0,0,0,0,36.94v7.37a8.18,8.18,0,0,0,8.18,8.18H29V73.07a8.17,8.17,0,0,0,8.17,8.18h7.38a8.17,8.17,0,0,0,8.17-8.18V52.49H73.07a8.18,8.18,0,0,0,8.18-8.18V36.94A8.18,8.18,0,0,0,73.07,28.76Z"/></g></g></svg>