<svg xmlns="http://www.w3.org/2000/svg" viewBox="0 0 94.45 78.66"><defs><style>.cls-1{fill:#fff;}</style></defs><title>icon_unlike</title><g id="Calque_2" data-name="Calque 2"><g id="PICTOS"><path class="cls-1" d="M27.21,8c1.12,0,3.26.81,6.18,3l5.08,16.73L25.41,37.66l-4.59,3.49,1.87,5.46,3.76,11C15.93,48.6,8,38.59,8,29.83,8,17.79,16.62,8,27.21,8m0-8C12.59,0,0,13,0,29.83c0,21.1,29.85,41.4,42.09,48.83L30.26,44,47.74,30.71,40.32,6.29C36.26,2.85,31.59,0,27.21,0Z"/><path class="cls-1" d="M67.24,8c10.59,0,19.21,9.79,19.21,21.83,0,11.67-14.11,25.57-29.6,36.36L51.49,50.48l12.68-9.66,4.43-3.37L67,32.13,60.65,11.29c4-3.1,6.12-3.29,6.59-3.29m0-8C61.87,0,56.08,4.26,51.5,8.67l7.82,25.79L42.05,47.61,52.6,78.51C65,71,94.45,50.79,94.45,29.83,94.45,13,81.86,0,67.24,0Z"/></g></g></svg>