<?xml version="1.0" encoding="utf-8"?>
<!-- Generator: Adobe Illustrator 21.0.0, SVG Export Plug-In . SVG Version: 6.00 Build 0)  -->
<svg version="1.1" id="Calque_1" xmlns="http://www.w3.org/2000/svg" xmlns:xlink="http://www.w3.org/1999/xlink" x="0px" y="0px"
	 viewBox="0 0 90 90" enable-background="new 0 0 90 90" xml:space="preserve">
<g>
	<path fill="#FFFFFF" d="M82.284,12.984H63.803V9.971c0-5.387-4.383-9.77-9.77-9.77H36.466c-5.387,0-9.77,4.383-9.77,9.77v3.013
		H8.215c-1.37,0-2.465,1.096-2.465,2.465s1.096,2.465,2.465,2.465h4.456V75.84c0,7.268,5.917,13.185,13.185,13.185h38.787
		c7.268,0,13.185-5.917,13.185-13.185V17.915h4.456c1.37,0,2.465-1.096,2.465-2.465S83.654,12.984,82.284,12.984z M31.627,9.971
		c0-2.666,2.173-4.839,4.839-4.839h17.568c2.666,0,4.839,2.173,4.839,4.839v3.013H31.627V9.971z M72.897,75.841
		c0,4.547-3.707,8.254-8.254,8.254H25.856c-4.547,0-8.254-3.707-8.254-8.254V17.915h55.314V75.84h-0.019V75.841z"/>
	<path fill="#FFFFFF" d="M45.25,75.256c1.37,0,2.465-1.096,2.465-2.465V29.219c0-1.37-1.096-2.465-2.465-2.465
		c-1.37,0-2.465,1.096-2.465,2.465v43.554C42.784,74.142,43.88,75.256,45.25,75.256z"/>
	<path fill="#FFFFFF" d="M29.161,72.535c1.37,0,2.465-1.096,2.465-2.465V31.922c0-1.37-1.096-2.465-2.465-2.465
		c-1.37,0-2.465,1.096-2.465,2.465V70.07C26.696,71.439,27.81,72.535,29.161,72.535z"/>
	<path fill="#FFFFFF" d="M61.338,72.535c1.37,0,2.465-1.096,2.465-2.465V31.922c0-1.37-1.096-2.465-2.465-2.465
		s-2.465,1.096-2.465,2.465V70.07C58.873,71.439,59.968,72.535,61.338,72.535z"/>
</g>
</svg>
